<?xml version='1.0' encoding='utf-8'?>
<svg xmlns="http://www.w3.org/2000/svg" width="2300" height="3000" viewBox="0 0 608.54165 793.75002" version="1.1" id="svg8"> <defs id="defs2"> <pattern y="0" x="0" height="6" width="6" patternUnits="userSpaceOnUse" id="EMFhbasepattern"/> </defs> <metadata id="metadata5"> </metadata> <g id="layer1" transform="translate(0,496.75002)"> <path style="opacity:1;fill:#253244;fill-opacity:1;fill-rule:nonzero;stroke:none;stroke-width:3.56299376;stroke-linecap:round;stroke-linejoin:round;stroke-miterlimit:4;stroke-dasharray:none;stroke-dashoffset:0;stroke-opacity:1;paint-order:markers stroke fill" d="m 584.76956,-484.0238 -2.78272,1.97994 c -2.65997,-0.80844 -5.48518,-1.24467 -8.41625,-1.24467 H 43.858503 c -15.91651,0 -28.73052,12.81401 -28.73052,28.73052 v 718.25384 c 0,3.09727 0.48756,6.07601 1.38645,8.86674 l -1.93207,2.52495 8.07747,8.03697 c 0.60032,0.65499 1.23008,1.28259 1.88849,1.87926 0.001,10e-4 0.002,0.002 0.004,0.003 5.09376,4.61456 11.86039,7.41952 19.3065,7.41952 H 573.57091 c 15.91654,0 28.73053,-12.81398 28.73053,-28.73052 v -718.25384 c 0,-7.7804 -3.06293,-14.81835 -8.05231,-19.98162 v -0.002 l -0.11783,-0.11784 c -0.14942,-0.15283 -0.30076,-0.30409 -0.45354,-0.45355 z" id="rect1105"/> <rect style="opacity:1;fill:#3b485a;fill-opacity:1;fill-rule:nonzero;stroke:none;stroke-width:3.56299376;stroke-linecap:round;stroke-linejoin:round;stroke-miterlimit:4;stroke-dasharray:none;stroke-dashoffset:0;stroke-opacity:1;paint-order:markers stroke fill" id="rect826" width="587.17285" height="775.7146" x="6.2402234" y="-492.1763" ry="28.730177"/> <path style="opacity:1;fill:#ffffff;fill-opacity:0.03921569;fill-rule:nonzero;stroke:none;stroke-width:3.56299376;stroke-linecap:round;stroke-linejoin:round;stroke-miterlimit:4;stroke-dasharray:none;stroke-dashoffset:0;stroke-opacity:1;paint-order:markers stroke fill" d="m 34.970283,-492.17614 c -15.91652,0 -28.7299112,12.81339 -28.7299112,28.72991 V 221.47341 L 477.46096,-492.17614 Z" id="path1130"/> <g id="g1103" style="fill:#4e6879;fill-opacity:1" transform="matrix(1.1876646,0,0,1.1876646,-171.52774,14.299023)"> <rect style="opacity:1;fill:#4e6879;fill-opacity:1;fill-rule:nonzero;stroke:none;stroke-width:2.75409818;stroke-linecap:round;stroke-linejoin:round;stroke-miterlimit:4;stroke-dasharray:none;stroke-dashoffset:0;stroke-opacity:1;paint-order:markers stroke fill" id="rect1054" width="84.666672" height="84.666672" x="199.099" y="-217.5201" ry="12.491809"/> <rect ry="12.491809" y="-217.5201" x="304.93237" height="84.666672" width="84.666672" id="rect1056" style="opacity:1;fill:#4e6879;fill-opacity:1;fill-rule:nonzero;stroke:none;stroke-width:2.75409818;stroke-linecap:round;stroke-linejoin:round;stroke-miterlimit:4;stroke-dasharray:none;stroke-dashoffset:0;stroke-opacity:1;paint-order:markers stroke fill"/> <rect style="opacity:1;fill:#4e6879;fill-opacity:1;fill-rule:nonzero;stroke:none;stroke-width:2.75409818;stroke-linecap:round;stroke-linejoin:round;stroke-miterlimit:4;stroke-dasharray:none;stroke-dashoffset:0;stroke-opacity:1;paint-order:markers stroke fill" id="rect1058" width="84.666672" height="84.666672" x="410.76569" y="-217.5201" ry="12.491809"/> <rect ry="12.491809" y="-111.68676" x="199.09898" height="84.666672" width="84.666672" id="rect1062" style="opacity:1;fill:#4e6879;fill-opacity:1;fill-rule:nonzero;stroke:none;stroke-width:2.75409818;stroke-linecap:round;stroke-linejoin:round;stroke-miterlimit:4;stroke-dasharray:none;stroke-dashoffset:0;stroke-opacity:1;paint-order:markers stroke fill"/> <rect style="opacity:1;fill:#4e6879;fill-opacity:1;fill-rule:nonzero;stroke:none;stroke-width:2.75409818;stroke-linecap:round;stroke-linejoin:round;stroke-miterlimit:4;stroke-dasharray:none;stroke-dashoffset:0;stroke-opacity:1;paint-order:markers stroke fill" id="rect1064" width="84.666672" height="84.666672" x="304.93237" y="-111.68676" ry="12.491809"/> <rect ry="12.491809" y="-111.68676" x="410.76569" height="84.666672" width="84.666672" id="rect1066" style="opacity:1;fill:#4e6879;fill-opacity:1;fill-rule:nonzero;stroke:none;stroke-width:2.75409818;stroke-linecap:round;stroke-linejoin:round;stroke-miterlimit:4;stroke-dasharray:none;stroke-dashoffset:0;stroke-opacity:1;paint-order:markers stroke fill"/> <rect style="opacity:1;fill:#4e6879;fill-opacity:1;fill-rule:nonzero;stroke:none;stroke-width:2.75409818;stroke-linecap:round;stroke-linejoin:round;stroke-miterlimit:4;stroke-dasharray:none;stroke-dashoffset:0;stroke-opacity:1;paint-order:markers stroke fill" id="rect1070" width="84.666672" height="84.666672" x="199.09897" y="-5.8534317" ry="12.491809"/> <rect ry="12.491809" y="-5.8534317" x="304.93237" height="84.666672" width="84.666672" id="rect1072" style="opacity:1;fill:#4e6879;fill-opacity:1;fill-rule:nonzero;stroke:none;stroke-width:2.75409818;stroke-linecap:round;stroke-linejoin:round;stroke-miterlimit:4;stroke-dasharray:none;stroke-dashoffset:0;stroke-opacity:1;paint-order:markers stroke fill"/> <rect style="opacity:1;fill:#4e6879;fill-opacity:1;fill-rule:nonzero;stroke:none;stroke-width:2.75409818;stroke-linecap:round;stroke-linejoin:round;stroke-miterlimit:4;stroke-dasharray:none;stroke-dashoffset:0;stroke-opacity:1;paint-order:markers stroke fill" id="rect1074" width="84.666672" height="84.666672" x="410.76569" y="-5.8534317" ry="12.491809"/> <rect ry="12.491809" y="99.979904" x="199.09898" height="84.666672" width="84.666672" id="rect1078" style="opacity:1;fill:#4e6879;fill-opacity:1;fill-rule:nonzero;stroke:none;stroke-width:2.75409818;stroke-linecap:round;stroke-linejoin:round;stroke-miterlimit:4;stroke-dasharray:none;stroke-dashoffset:0;stroke-opacity:1;paint-order:markers stroke fill"/> <rect style="opacity:1;fill:#4e6879;fill-opacity:1;fill-rule:nonzero;stroke:none;stroke-width:2.75409818;stroke-linecap:round;stroke-linejoin:round;stroke-miterlimit:4;stroke-dasharray:none;stroke-dashoffset:0;stroke-opacity:1;paint-order:markers stroke fill" id="rect1080" width="84.666672" height="84.666672" x="304.9324" y="99.979904" ry="12.491809"/> </g> <rect style="opacity:1;fill:#a24724;fill-opacity:1;fill-rule:nonzero;stroke:none;stroke-width:3.27094483;stroke-linecap:round;stroke-linejoin:round;stroke-miterlimit:4;stroke-dasharray:none;stroke-dashoffset:0;stroke-opacity:1;paint-order:markers stroke fill" id="rect1082" width="100.55561" height="100.55561" x="316.32416" y="133.04161" ry="14.836079"/> <g id="g1090" style="fill:#c78536;fill-opacity:1" transform="matrix(1.1876646,0,0,1.1876646,-171.52774,14.299023)"> <rect ry="12.491809" y="-217.5201" x="516.59894" height="84.666672" width="84.666672" id="rect1060" style="opacity:1;fill:#c78536;fill-opacity:1;fill-rule:nonzero;stroke:none;stroke-width:2.75409818;stroke-linecap:round;stroke-linejoin:round;stroke-miterlimit:4;stroke-dasharray:none;stroke-dashoffset:0;stroke-opacity:1;paint-order:markers stroke fill"/> <rect style="opacity:1;fill:#c78536;fill-opacity:1;fill-rule:nonzero;stroke:none;stroke-width:2.75409818;stroke-linecap:round;stroke-linejoin:round;stroke-miterlimit:4;stroke-dasharray:none;stroke-dashoffset:0;stroke-opacity:1;paint-order:markers stroke fill" id="rect1068" width="84.666672" height="84.666672" x="516.59894" y="-111.68676" ry="12.491809"/> <rect ry="12.491809" y="-6.8559361" x="516.5589" height="84.666672" width="84.666672" id="rect1076" style="opacity:1;fill:#c78536;fill-opacity:1;fill-rule:nonzero;stroke:none;stroke-width:2.75409818;stroke-linecap:round;stroke-linejoin:round;stroke-miterlimit:4;stroke-dasharray:none;stroke-dashoffset:0;stroke-opacity:1;paint-order:markers stroke fill"/> <rect style="opacity:1;fill:#c78536;fill-opacity:1;fill-rule:nonzero;stroke:none;stroke-width:2.75409818;stroke-linecap:round;stroke-linejoin:round;stroke-miterlimit:4;stroke-dasharray:none;stroke-dashoffset:0;stroke-opacity:1;paint-order:markers stroke fill" id="rect1084" width="84.666672" height="84.666672" x="516.59894" y="99.979904" ry="12.491809"/> </g> <rect style="opacity:1;fill:#7895a8;fill-opacity:1;fill-rule:nonzero;stroke:none;stroke-width:3.27094483;stroke-linecap:round;stroke-linejoin:round;stroke-miterlimit:4;stroke-dasharray:none;stroke-dashoffset:0;stroke-opacity:1;paint-order:markers stroke fill" id="rect830" width="100.55561" height="100.55561" x="61.007149" y="-248.86766" ry="14.836079"/> <rect style="opacity:1;fill:#2c3543;fill-opacity:1;fill-rule:nonzero;stroke:none;stroke-width:3.93606329;stroke-linecap:round;stroke-linejoin:round;stroke-miterlimit:4;stroke-dasharray:none;stroke-dashoffset:0;stroke-opacity:1;paint-order:markers stroke fill" id="rect888" width="147.44151" height="40.799461" x="391.99649" y="-464.38873" ry="4.7807708"/> <rect ry="14.836079" y="-248.86766" x="186.70168" height="100.55561" width="100.55561" id="rect842" style="opacity:1;fill:#7895a8;fill-opacity:1;fill-rule:nonzero;stroke:none;stroke-width:3.27094483;stroke-linecap:round;stroke-linejoin:round;stroke-miterlimit:4;stroke-dasharray:none;stroke-dashoffset:0;stroke-opacity:1;paint-order:markers stroke fill"/> <rect style="opacity:1;fill:#7895a8;fill-opacity:1;fill-rule:nonzero;stroke:none;stroke-width:3.27094483;stroke-linecap:round;stroke-linejoin:round;stroke-miterlimit:4;stroke-dasharray:none;stroke-dashoffset:0;stroke-opacity:1;paint-order:markers stroke fill" id="rect844" width="100.55561" height="100.55561" x="312.39612" y="-248.86766" ry="14.836079"/> <rect ry="14.836079" y="-248.86766" x="438.09052" height="100.55561" width="100.55561" id="rect846" style="opacity:1;fill:#f8c743;fill-opacity:1;fill-rule:nonzero;stroke:none;stroke-width:3.27094483;stroke-linecap:round;stroke-linejoin:round;stroke-miterlimit:4;stroke-dasharray:none;stroke-dashoffset:0;stroke-opacity:1;paint-order:markers stroke fill"/> <rect ry="14.836079" y="-123.17316" x="61.007133" height="100.55561" width="100.55561" id="rect850" style="opacity:1;fill:#7895a8;fill-opacity:1;fill-rule:nonzero;stroke:none;stroke-width:3.27094483;stroke-linecap:round;stroke-linejoin:round;stroke-miterlimit:4;stroke-dasharray:none;stroke-dashoffset:0;stroke-opacity:1;paint-order:markers stroke fill"/> <rect style="opacity:1;fill:#7895a8;fill-opacity:1;fill-rule:nonzero;stroke:none;stroke-width:3.27094483;stroke-linecap:round;stroke-linejoin:round;stroke-miterlimit:4;stroke-dasharray:none;stroke-dashoffset:0;stroke-opacity:1;paint-order:markers stroke fill" id="rect852" width="100.55561" height="100.55561" x="186.70168" y="-123.17316" ry="14.836079"/> <rect ry="14.836079" y="-123.17316" x="312.39612" height="100.55561" width="100.55561" id="rect854" style="opacity:1;fill:#7895a8;fill-opacity:1;fill-rule:nonzero;stroke:none;stroke-width:3.27094483;stroke-linecap:round;stroke-linejoin:round;stroke-miterlimit:4;stroke-dasharray:none;stroke-dashoffset:0;stroke-opacity:1;paint-order:markers stroke fill"/> <rect style="opacity:1;fill:#f8c743;fill-opacity:1;fill-rule:nonzero;stroke:none;stroke-width:3.27094483;stroke-linecap:round;stroke-linejoin:round;stroke-miterlimit:4;stroke-dasharray:none;stroke-dashoffset:0;stroke-opacity:1;paint-order:markers stroke fill" id="rect856" width="100.55561" height="100.55561" x="438.09052" y="-123.17316" ry="14.836079"/> <rect style="opacity:1;fill:#7895a8;fill-opacity:1;fill-rule:nonzero;stroke:none;stroke-width:3.27094483;stroke-linecap:round;stroke-linejoin:round;stroke-miterlimit:4;stroke-dasharray:none;stroke-dashoffset:0;stroke-opacity:1;paint-order:markers stroke fill" id="rect858" width="100.55561" height="100.55561" x="61.007103" y="2.5213385" ry="14.836079"/> <rect ry="14.836079" y="2.5213385" x="186.70168" height="100.55561" width="100.55561" id="rect860" style="opacity:1;fill:#7895a8;fill-opacity:1;fill-rule:nonzero;stroke:none;stroke-width:3.27094483;stroke-linecap:round;stroke-linejoin:round;stroke-miterlimit:4;stroke-dasharray:none;stroke-dashoffset:0;stroke-opacity:1;paint-order:markers stroke fill"/> <rect style="opacity:1;fill:#7895a8;fill-opacity:1;fill-rule:nonzero;stroke:none;stroke-width:3.27094483;stroke-linecap:round;stroke-linejoin:round;stroke-miterlimit:4;stroke-dasharray:none;stroke-dashoffset:0;stroke-opacity:1;paint-order:markers stroke fill" id="rect862" width="100.55561" height="100.55561" x="312.39612" y="2.5213385" ry="14.836079"/> <rect ry="14.836079" y="1.3306993" x="438.04297" height="100.55561" width="100.55561" id="rect864" style="opacity:1;fill:#f8c743;fill-opacity:1;fill-rule:nonzero;stroke:none;stroke-width:3.27094483;stroke-linecap:round;stroke-linejoin:round;stroke-miterlimit:4;stroke-dasharray:none;stroke-dashoffset:0;stroke-opacity:1;paint-order:markers stroke fill"/> <rect ry="14.836079" y="128.21584" x="61.007133" height="100.55561" width="100.55561" id="rect866" style="opacity:1;fill:#7895a8;fill-opacity:1;fill-rule:nonzero;stroke:none;stroke-width:3.27094483;stroke-linecap:round;stroke-linejoin:round;stroke-miterlimit:4;stroke-dasharray:none;stroke-dashoffset:0;stroke-opacity:1;paint-order:markers stroke fill"/> <rect style="opacity:1;fill:#7895a8;fill-opacity:1;fill-rule:nonzero;stroke:none;stroke-width:3.27094483;stroke-linecap:round;stroke-linejoin:round;stroke-miterlimit:4;stroke-dasharray:none;stroke-dashoffset:0;stroke-opacity:1;paint-order:markers stroke fill" id="rect868" width="100.55561" height="100.55561" x="186.70171" y="128.21584" ry="14.836079"/> <rect ry="14.836079" y="128.21584" x="312.39618" height="100.55561" width="100.55561" id="rect870" style="opacity:1;fill:#ed6e3e;fill-opacity:1;fill-rule:nonzero;stroke:none;stroke-width:3.27094483;stroke-linecap:round;stroke-linejoin:round;stroke-miterlimit:4;stroke-dasharray:none;stroke-dashoffset:0;stroke-opacity:1;paint-order:markers stroke fill"/> <rect style="opacity:1;fill:#f8c743;fill-opacity:1;fill-rule:nonzero;stroke:none;stroke-width:3.27094483;stroke-linecap:round;stroke-linejoin:round;stroke-miterlimit:4;stroke-dasharray:none;stroke-dashoffset:0;stroke-opacity:1;paint-order:markers stroke fill" id="rect872" width="100.55561" height="100.55561" x="438.09052" y="128.21584" ry="14.836079"/> <g id="g896" style="fill:#607386;fill-opacity:1" transform="matrix(1.1876646,0,0,1.1876646,-171.52774,14.299023)"> <rect ry="4.2605901" y="-400.61435" x="477.28732" height="29.482143" width="16.744942" id="rect832" style="opacity:1;fill:#607386;fill-opacity:1;fill-rule:nonzero;stroke:none;stroke-width:2.26091123;stroke-linecap:round;stroke-linejoin:round;stroke-miterlimit:4;stroke-dasharray:none;stroke-dashoffset:0;stroke-opacity:1;paint-order:markers stroke fill"/> <rect style="opacity:1;fill:#607386;fill-opacity:1;fill-rule:nonzero;stroke:none;stroke-width:2.26091123;stroke-linecap:round;stroke-linejoin:round;stroke-miterlimit:4;stroke-dasharray:none;stroke-dashoffset:0;stroke-opacity:1;paint-order:markers stroke fill" id="rect874" width="16.744942" height="29.482143" x="497.64462" y="-400.61435" ry="4.2605901"/> <rect ry="4.2605901" y="-400.61435" x="518.00189" height="29.482143" width="16.744942" id="rect878" style="opacity:1;fill:#607386;fill-opacity:1;fill-rule:nonzero;stroke:none;stroke-width:2.26091123;stroke-linecap:round;stroke-linejoin:round;stroke-miterlimit:4;stroke-dasharray:none;stroke-dashoffset:0;stroke-opacity:1;paint-order:markers stroke fill"/> <rect style="opacity:1;fill:#607386;fill-opacity:1;fill-rule:nonzero;stroke:none;stroke-width:2.26091123;stroke-linecap:round;stroke-linejoin:round;stroke-miterlimit:4;stroke-dasharray:none;stroke-dashoffset:0;stroke-opacity:1;paint-order:markers stroke fill" id="rect880" width="16.744942" height="29.482143" x="538.35919" y="-400.61435" ry="4.2605901"/> <rect ry="4.2605901" y="-400.61435" x="558.71649" height="29.482143" width="16.744942" id="rect882" style="opacity:1;fill:#607386;fill-opacity:1;fill-rule:nonzero;stroke:none;stroke-width:2.26091123;stroke-linecap:round;stroke-linejoin:round;stroke-miterlimit:4;stroke-dasharray:none;stroke-dashoffset:0;stroke-opacity:1;paint-order:markers stroke fill"/> <rect style="opacity:1;fill:#607386;fill-opacity:1;fill-rule:nonzero;stroke:none;stroke-width:2.26091123;stroke-linecap:round;stroke-linejoin:round;stroke-miterlimit:4;stroke-dasharray:none;stroke-dashoffset:0;stroke-opacity:1;paint-order:markers stroke fill" id="rect884" width="16.744942" height="29.482143" x="579.07379" y="-400.61435" ry="4.2605901"/> </g> <rect style="opacity:1;fill:#2c3543;fill-opacity:1;fill-rule:nonzero;stroke:none;stroke-width:3.56299376;stroke-linecap:round;stroke-linejoin:round;stroke-miterlimit:4;stroke-dasharray:none;stroke-dashoffset:0;stroke-opacity:1;paint-order:markers stroke fill" id="rect886" width="136.46829" height="17.956356" x="53.869682" y="-457.71381" ry="8.978178"/> <g aria-label="7" transform="matrix(2.3813363,0,0,2.3813363,-1836.0168,-2864.3591)" style="font-style:normal;font-variant:normal;font-weight:bold;font-stretch:normal;font-size:40px;line-height:125%;font-family:'Source Code Pro';-inkscape-font-specification:'Source Code Pro Bold';letter-spacing:0px;word-spacing:0px;fill:#ffffff;fill-opacity:1;stroke:none;stroke-width:1px;stroke-linecap:butt;stroke-linejoin:miter;stroke-opacity:1" id="flowRoot898"> <path d="m 813.43484,1132.1426 q 0.16,-3.16 0.6,-5.8 0.48,-2.68 1.32,-5.08 0.88,-2.44 2.24,-4.72 1.36,-2.32 3.36,-4.84 h -12.76 v -4.96 h 19.08 v 3.6 q -2.4,2.68 -3.88,5.04 -1.48,2.32 -2.32,4.84 -0.84,2.48 -1.2,5.36 -0.36,2.84 -0.52,6.56 z" style="" id="path974"/> </g> <g aria-label="8" transform="matrix(2.3813363,0,0,2.3813363,-1710.3222,-2864.3591)" style="font-style:normal;font-variant:normal;font-weight:bold;font-stretch:normal;font-size:40px;line-height:125%;font-family:'Source Code Pro';-inkscape-font-specification:'Source Code Pro Bold';letter-spacing:0px;word-spacing:0px;fill:#ffffff;fill-opacity:1;stroke:none;stroke-width:1px;stroke-linecap:butt;stroke-linejoin:miter;stroke-opacity:1" id="flowRoot912"> <path d="m 817.67484,1132.6226 q -2.2,0 -3.96,-0.48 -1.76,-0.52 -3,-1.44 -1.24,-0.92 -1.92,-2.2 -0.64,-1.28 -0.64,-2.84 0,-1.16 0.36,-2.08 0.4,-0.96 1.04,-1.72 0.68,-0.76 1.52,-1.36 0.88,-0.6 1.88,-1.08 v -0.16 q -1.6,-1.12 -2.68,-2.52 -1.04,-1.44 -1.04,-3.48 0,-1.6 0.64,-2.88 0.64,-1.32 1.76,-2.24 1.16,-0.92 2.76,-1.4 1.6,-0.48 3.48,-0.48 1.92,0 3.44,0.52 1.56,0.48 2.64,1.4 1.08,0.88 1.64,2.2 0.6,1.28 0.6,2.84 0,1.8 -1.08,3.2 -1.04,1.4 -2.56,2.36 v 0.16 q 1,0.48 1.88,1.12 0.88,0.6 1.52,1.4 0.64,0.8 1,1.84 0.36,1 0.36,2.28 0,1.52 -0.64,2.8 -0.64,1.28 -1.88,2.24 -1.2,0.92 -3,1.48 -1.8,0.52 -4.12,0.52 z m 1.76,-15.28 q 1.92,-1.72 1.92,-3.72 0,-1.48 -0.92,-2.36 -0.92,-0.92 -2.68,-0.92 -1.4,0 -2.4,0.72 -0.96,0.72 -0.96,2.2 0,1.56 1.4,2.44 1.4,0.88 3.64,1.64 z m -1.6,11.2 q 1.8,0 2.88,-0.76 1.12,-0.8 1.12,-2.4 0,-0.88 -0.44,-1.48 -0.44,-0.6 -1.28,-1.08 -0.8,-0.52 -1.92,-0.92 -1.12,-0.44 -2.48,-0.96 -1.08,0.8 -1.8,1.8 -0.68,1 -0.68,2.24 0,1.68 1.32,2.64 1.32,0.92 3.28,0.92 z" style="" id="path971"/> </g> <g aria-label="9" transform="matrix(2.3813363,0,0,2.3813363,-1584.1515,-2864.3591)" style="font-style:normal;font-variant:normal;font-weight:bold;font-stretch:normal;font-size:40px;line-height:125%;font-family:'Source Code Pro';-inkscape-font-specification:'Source Code Pro Bold';letter-spacing:0px;word-spacing:0px;fill:#ffffff;fill-opacity:1;stroke:none;stroke-width:1px;stroke-linecap:butt;stroke-linejoin:miter;stroke-opacity:1" id="flowRoot920"> <path d="m 816.99484,1118.4626 q 1.16,0 2.36,-0.56 1.24,-0.6 2.32,-1.96 -0.24,-1.48 -0.72,-2.48 -0.44,-1.04 -1.08,-1.64 -0.6,-0.64 -1.32,-0.88 -0.72,-0.28 -1.48,-0.28 -0.76,0 -1.48,0.24 -0.68,0.24 -1.24,0.76 -0.52,0.48 -0.84,1.28 -0.32,0.76 -0.32,1.84 0,1.96 1.04,2.84 1.04,0.84 2.76,0.84 z m -0.68,14.16 q -2.72,0 -4.76,-0.92 -2.04,-0.92 -3.36,-2.12 l 3.12,-3.52 q 0.8,0.72 2,1.28 1.2,0.52 2.48,0.52 1.16,0 2.2,-0.4 1.08,-0.44 1.88,-1.36 0.84,-0.96 1.36,-2.48 0.52,-1.56 0.6,-3.8 -1.4,1.32 -3.08,2.08 -1.64,0.72 -3.04,0.72 -1.68,0 -3.12,-0.48 -1.44,-0.48 -2.52,-1.44 -1.04,-0.96 -1.64,-2.44 -0.6,-1.48 -0.6,-3.48 0,-1.96 0.72,-3.52 0.76,-1.6 2,-2.72 1.28,-1.12 2.92,-1.68 1.64,-0.6 3.48,-0.6 1.96,0 3.8,0.72 1.88,0.72 3.32,2.24 1.44,1.52 2.28,3.92 0.88,2.36 0.88,5.72 0,3.56 -0.92,6.16 -0.92,2.6 -2.44,4.28 -1.52,1.68 -3.52,2.52 -1.96,0.8 -4.04,0.8 z" style="" id="path968"/> </g> <g aria-label="4" transform="matrix(2.3813363,0,0,2.3813363,-1835.6358,-2738.6646)" style="font-style:normal;font-variant:normal;font-weight:bold;font-stretch:normal;font-size:40px;line-height:125%;font-family:'Source Code Pro';-inkscape-font-specification:'Source Code Pro Bold';letter-spacing:0px;word-spacing:0px;fill:#ffffff;fill-opacity:1;stroke:none;stroke-width:1px;stroke-linecap:butt;stroke-linejoin:miter;stroke-opacity:1" id="flowRoot928"> <path d="m 819.35484,1132.1426 v -6.08 h -12.24 v -4.04 l 10.6,-15.28 h 7.12 v 14.84 h 3.2 v 4.48 h -3.2 v 6.08 z m -6.56,-10.56 h 6.56 v -4.28 q 0,-1.2 0.04,-2.76 0.08,-1.6 0.16,-2.8 h -0.16 q -0.64,1.08 -1.36,2.16 -0.72,1.08 -1.4,2.16 z" style="" id="path929"/> </g> <g aria-label="5" transform="matrix(2.3813363,0,0,2.3813363,-1709.2268,-2739.2361)" style="font-style:normal;font-variant:normal;font-weight:bold;font-stretch:normal;font-size:40px;line-height:125%;font-family:'Source Code Pro';-inkscape-font-specification:'Source Code Pro Bold';letter-spacing:0px;word-spacing:0px;fill:#ffffff;fill-opacity:1;stroke:none;stroke-width:1px;stroke-linecap:butt;stroke-linejoin:miter;stroke-opacity:1" id="flowRoot936"> <path d="m 817.03484,1132.6226 q -3.32,0 -5.64,-1 -2.28,-1.04 -3.84,-2.56 l 2.64,-3.72 q 1.28,1.04 2.72,1.8 1.48,0.72 3.28,0.72 2.16,0 3.52,-1 1.4,-1 1.4,-2.96 0,-1.92 -1.32,-2.92 -1.28,-1 -3.32,-1 -0.64,0 -1.16,0.08 -0.48,0.04 -0.96,0.2 -0.48,0.16 -1,0.4 -0.52,0.24 -1.16,0.6 l -2.6,-1.68 0.68,-12.84 h 15.56 v 4.96 h -10.48 l -0.44,4.76 q 0.88,-0.32 1.64,-0.44 0.76,-0.16 1.72,-0.16 1.76,0 3.32,0.48 1.6,0.48 2.8,1.44 1.2,0.96 1.88,2.44 0.72,1.48 0.72,3.52 0,2.12 -0.84,3.76 -0.8,1.64 -2.2,2.8 -1.36,1.12 -3.16,1.72 -1.8,0.6 -3.76,0.6 z" style="" id="path935"/> </g> <g aria-label="6" transform="matrix(2.3813363,0,0,2.3813363,-1584.8182,-2738.6646)" style="font-style:normal;font-variant:normal;font-weight:bold;font-stretch:normal;font-size:40px;line-height:125%;font-family:'Source Code Pro';-inkscape-font-specification:'Source Code Pro Bold';letter-spacing:0px;word-spacing:0px;fill:#ffffff;fill-opacity:1;stroke:none;stroke-width:1px;stroke-linecap:butt;stroke-linejoin:miter;stroke-opacity:1" id="flowRoot944"> <path d="m 818.39484,1132.6226 q -1.96,0 -3.8,-0.72 -1.84,-0.72 -3.28,-2.24 -1.44,-1.52 -2.32,-3.88 -0.88,-2.4 -0.88,-5.76 0,-3.56 0.92,-6.16 0.92,-2.6 2.44,-4.28 1.56,-1.68 3.52,-2.48 1.96,-0.84 4.08,-0.84 2.72,0 4.76,0.92 2.04,0.88 3.32,2.12 l -3.08,3.52 q -0.8,-0.72 -2,-1.24 -1.2,-0.56 -2.48,-0.56 -1.16,0 -2.24,0.44 -1.04,0.4 -1.88,1.36 -0.8,0.92 -1.32,2.44 -0.52,1.52 -0.6,3.76 1.36,-1.32 3,-2.04 1.68,-0.72 3.12,-0.72 1.68,0 3.08,0.48 1.44,0.48 2.48,1.44 1.08,0.96 1.68,2.44 0.6,1.48 0.6,3.48 0,2 -0.76,3.56 -0.72,1.56 -2,2.68 -1.24,1.12 -2.88,1.72 -1.64,0.56 -3.48,0.56 z m -0.12,-4.4 q 0.76,0 1.44,-0.24 0.72,-0.24 1.24,-0.72 0.56,-0.52 0.88,-1.28 0.32,-0.8 0.32,-1.88 0,-1.96 -1.04,-2.8 -1.04,-0.88 -2.72,-0.88 -1.12,0 -2.32,0.56 -1.2,0.56 -2.36,1.92 0.24,1.52 0.68,2.56 0.48,1 1.08,1.64 0.6,0.6 1.32,0.88 0.72,0.24 1.48,0.24 z" style="" id="path932"/> </g> <g aria-label="1" transform="matrix(2.3813363,0,0,2.3813363,-1836.9217,-2612.97)" style="font-style:normal;font-variant:normal;font-weight:bold;font-stretch:normal;font-size:40px;line-height:125%;font-family:'Source Code Pro';-inkscape-font-specification:'Source Code Pro Bold';letter-spacing:0px;word-spacing:0px;fill:#ffffff;fill-opacity:1;stroke:none;stroke-width:1px;stroke-linecap:butt;stroke-linejoin:miter;stroke-opacity:1" id="flowRoot952"> <path d="m 808.87484,1132.1426 v -4.76 h 6.84 v -14.68 h -5.64 v -3.64 q 1.28,-0.2 2.28,-0.4 1.04,-0.24 1.88,-0.52 0.84,-0.28 1.56,-0.6 0.76,-0.36 1.48,-0.8 h 4.32 v 20.64 h 5.76 v 4.76 z" style="" id="path941"/> </g> <g aria-label="3" transform="matrix(2.3813363,0,0,2.3813363,-1583.2942,-2612.97)" style="font-style:normal;font-variant:normal;font-weight:bold;font-stretch:normal;font-size:40px;line-height:125%;font-family:'Source Code Pro';-inkscape-font-specification:'Source Code Pro Bold';letter-spacing:0px;word-spacing:0px;fill:#ffffff;fill-opacity:1;stroke:none;stroke-width:1px;stroke-linecap:butt;stroke-linejoin:miter;stroke-opacity:1" id="flowRoot960"> <path d="m 816.87484,1132.6226 q -3.28,0 -5.64,-0.96 -2.36,-1 -3.84,-2.64 l 2.72,-3.72 q 1.28,1.12 2.84,1.84 1.6,0.72 3.36,0.72 2.08,0 3.4,-0.76 1.36,-0.8 1.36,-2.24 0,-0.84 -0.36,-1.52 -0.36,-0.68 -1.24,-1.12 -0.88,-0.48 -2.36,-0.72 -1.48,-0.28 -3.72,-0.28 v -4.16 q 3.76,0 5.28,-0.92 1.56,-0.96 1.56,-2.48 0,-1.32 -1,-2.04 -1,-0.76 -2.76,-0.76 -1.52,0 -2.8,0.6 -1.28,0.6 -2.6,1.64 l -2.96,-3.6 q 1.88,-1.52 4,-2.36 2.16,-0.88 4.64,-0.88 2.08,0 3.8,0.48 1.72,0.44 2.96,1.36 1.24,0.88 1.92,2.16 0.68,1.28 0.68,2.96 0,2 -1.28,3.4 -1.28,1.36 -3.56,2.24 v 0.16 q 2.4,0.64 4.04,2.2 1.64,1.52 1.64,4 0,1.76 -0.84,3.16 -0.8,1.36 -2.2,2.32 -1.36,0.92 -3.2,1.44 -1.84,0.48 -3.84,0.48 z" style="" id="path950"/> </g> <g aria-label="2" transform="matrix(2.3813363,0,0,2.3813363,-1709.6078,-2612.3985)" style="font-style:normal;font-variant:normal;font-weight:bold;font-stretch:normal;font-size:40px;line-height:125%;font-family:'Source Code Pro';-inkscape-font-specification:'Source Code Pro Bold';letter-spacing:0px;word-spacing:0px;fill:#ffffff;fill-opacity:1;stroke:none;stroke-width:1px;stroke-linecap:butt;stroke-linejoin:miter;stroke-opacity:1" id="flowRoot968"> <path d="m 808.03484,1132.1426 v -3.36 q 2.72,-2.28 4.96,-4.24 2.24,-2 3.84,-3.72 1.6,-1.72 2.48,-3.24 0.88,-1.52 0.88,-2.88 0,-1.88 -1.08,-2.84 -1.08,-1 -3.08,-1 -1.52,0 -2.8,0.8 -1.24,0.76 -2.32,1.8 l -3.16,-3.16 q 1,-1 1.96,-1.76 1,-0.76 2.08,-1.24 1.12,-0.52 2.32,-0.76 1.24,-0.28 2.72,-0.28 2,0 3.64,0.6 1.64,0.56 2.8,1.64 1.2,1.04 1.84,2.52 0.68,1.48 0.68,3.32 0,1.6 -0.76,3.28 -0.76,1.64 -2.08,3.32 -1.28,1.64 -2.96,3.32 -1.68,1.64 -3.52,3.24 1.08,-0.12 2.32,-0.2 1.28,-0.12 2.28,-0.12 h 6.04 v 4.96 z" style="" id="path938"/> </g> <g aria-label="." transform="matrix(2.3813363,0,0,2.3813363,-1710.3222,-2487.2756)" style="font-style:normal;font-variant:normal;font-weight:bold;font-stretch:normal;font-size:40px;line-height:125%;font-family:'Source Code Pro';-inkscape-font-specification:'Source Code Pro Bold';letter-spacing:0px;word-spacing:0px;fill:#ffffff;fill-opacity:1;stroke:none;stroke-width:1px;stroke-linecap:butt;stroke-linejoin:miter;stroke-opacity:1" id="flowRoot976"> <path d="m 817.71484,1132.6226 q -2.08,0 -3.36,-1.32 -1.28,-1.36 -1.28,-3.36 0,-1 0.32,-1.84 0.36,-0.88 0.96,-1.52 0.6,-0.64 1.44,-1 0.88,-0.36 1.92,-0.36 1.04,0 1.88,0.36 0.88,0.36 1.48,1 0.6,0.64 0.92,1.52 0.36,0.84 0.36,1.84 0,2 -1.28,3.36 -1.28,1.32 -3.36,1.32 z" style="" id="path947"/> </g> <g aria-label="0" transform="matrix(2.3813363,0,0,2.3813363,-1835.9692,-2487.2756)" style="font-style:normal;font-variant:normal;font-weight:bold;font-stretch:normal;font-size:40px;line-height:125%;font-family:'Source Code Pro';-inkscape-font-specification:'Source Code Pro Bold';letter-spacing:0px;word-spacing:0px;fill:#ffffff;fill-opacity:1;stroke:none;stroke-width:1px;stroke-linecap:butt;stroke-linejoin:miter;stroke-opacity:1" id="flowRoot984"> <path d="m 817.71484,1132.6226 q -2.2,0 -4,-0.84 -1.8,-0.88 -3.08,-2.56 -1.28,-1.68 -2,-4.16 -0.68,-2.48 -0.68,-5.72 0,-3.24 0.68,-5.68 0.72,-2.44 2,-4.08 1.28,-1.68 3.08,-2.48 1.8,-0.84 4,-0.84 2.2,0 4,0.84 1.8,0.8 3.08,2.48 1.28,1.64 1.96,4.08 0.72,2.44 0.72,5.68 0,3.24 -0.72,5.72 -0.68,2.48 -1.96,4.16 -1.28,1.68 -3.08,2.56 -1.8,0.84 -4,0.84 z m 0,-4.56 q 0.96,0 1.76,-0.44 0.84,-0.44 1.44,-1.44 0.6,-1.04 0.96,-2.68 0.36,-1.68 0.36,-4.16 0,-2.48 -0.36,-4.12 -0.36,-1.64 -0.96,-2.6 -0.6,-1 -1.44,-1.4 -0.8,-0.4 -1.76,-0.4 -0.96,0 -1.8,0.4 -0.8,0.4 -1.4,1.4 -0.6,0.96 -0.96,2.6 -0.36,1.64 -0.36,4.12 0,2.48 0.36,4.16 0.36,1.64 0.96,2.68 0.6,1 1.4,1.44 0.84,0.44 1.8,0.44 z m 0,-5.76 q -1.28,0 -2.16,-0.8 -0.84,-0.84 -0.84,-2.24 0,-1.4 0.84,-2.2 0.88,-0.84 2.16,-0.84 1.28,0 2.12,0.84 0.88,0.8 0.88,2.2 0,1.4 -0.88,2.24 -0.84,0.8 -2.12,0.8 z" style="" id="path944"/> </g> <g aria-label="=" transform="matrix(2.3813363,0,0,2.3813363,-1584.5801,-2486.0373)" style="font-style:normal;font-variant:normal;font-weight:bold;font-stretch:normal;font-size:40px;line-height:125%;font-family:'Source Code Pro';-inkscape-font-specification:'Source Code Pro Bold';letter-spacing:0px;word-spacing:0px;fill:#ffffff;fill-opacity:1;stroke:none;stroke-width:1px;stroke-linecap:butt;stroke-linejoin:miter;stroke-opacity:1" id="flowRoot992"> <path d="m 808.51484,1116.3826 v -4.16 h 18.4 v 4.16 z m 0,9.24 v -4.16 h 18.4 v 4.16 z" style="" id="path953"/> </g> <flowRoot id="flowRoot1000" style="font-style:normal;font-variant:normal;font-weight:bold;font-stretch:normal;font-size:40px;line-height:125%;font-family:'Source Code Pro';-inkscape-font-specification:'Source Code Pro Bold';letter-spacing:0px;word-spacing:0px;fill:#ffffff;fill-opacity:1;stroke:none;stroke-width:1px;stroke-linecap:butt;stroke-linejoin:miter;stroke-opacity:1" transform="matrix(2.0050579,0,0,2.0050579,-1083.9807,-2423.7972)"><flowRegion id="flowRegion996" style="font-style:normal;font-variant:normal;font-weight:bold;font-stretch:normal;font-family:'Source Code Pro';-inkscape-font-specification:'Source Code Pro Bold';fill:#ffffff;fill-opacity:1"><rect id="rect994" width="41.412846" height="45.988926" x="805.71429" y="1097.1428" style="font-style:normal;font-variant:normal;font-weight:bold;font-stretch:normal;font-family:'Source Code Pro';-inkscape-font-specification:'Source Code Pro Bold';fill:#ffffff;fill-opacity:1"/></flowRegion><flowPara id="flowPara998"/></flowRoot> <g aria-label="x" transform="matrix(2.3813363,0,0,2.3813363,-1458.838,-2745.2847)" style="font-style:normal;font-variant:normal;font-weight:bold;font-stretch:normal;font-size:40px;line-height:125%;font-family:'Source Code Pro';-inkscape-font-specification:'Source Code Pro Bold';letter-spacing:0px;word-spacing:0px;fill:#ffffff;fill-opacity:1;stroke:none;stroke-width:1px;stroke-linecap:butt;stroke-linejoin:miter;stroke-opacity:1" id="flowRoot1008"> <path d="m 807.19484,1132.1426 6.88,-10.32 -6.44,-9.52 h 6.32 l 2.04,3.2 q 0.44,0.84 1,1.72 0.56,0.84 1.08,1.68 h 0.16 q 0.4,-0.84 0.8,-1.72 0.44,-0.88 0.84,-1.68 l 1.76,-3.2 h 6.16 l -6.48,10.2 6.88,9.64 h -6.32 l -2.28,-3.28 q -0.56,-0.84 -1.16,-1.72 -0.56,-0.88 -1.12,-1.72 h -0.16 q -0.44,0.84 -0.92,1.72 -0.48,0.84 -0.92,1.72 l -1.96,3.28 z" style="" id="path962"/> </g> <g aria-label="-" transform="matrix(2.3813363,0,0,2.3813363,-1458.9333,-2612.97)" style="font-style:normal;font-variant:normal;font-weight:bold;font-stretch:normal;font-size:40px;line-height:125%;font-family:'Source Code Pro';-inkscape-font-specification:'Source Code Pro Bold';letter-spacing:0px;word-spacing:0px;fill:#ffffff;fill-opacity:1;stroke:none;stroke-width:1px;stroke-linecap:butt;stroke-linejoin:miter;stroke-opacity:1" id="flowRoot1016"> <path d="m 808.51484,1121.0226 v -4.16 h 18.4 v 4.16 z" style="" id="path959"/> </g> <g aria-label="+" transform="matrix(2.3813363,0,0,2.3813363,-1458.8856,-2486.085)" style="font-style:normal;font-variant:normal;font-weight:bold;font-stretch:normal;font-size:40px;line-height:125%;font-family:'Source Code Pro';-inkscape-font-specification:'Source Code Pro Bold';letter-spacing:0px;word-spacing:0px;fill:#ffffff;fill-opacity:1;stroke:none;stroke-width:1px;stroke-linecap:butt;stroke-linejoin:miter;stroke-opacity:1" id="flowRoot1024"> <path d="m 815.55484,1128.3826 v -7.36 h -7.04 v -4.16 h 7.04 v -7.36 h 4.32 v 7.36 h 7.04 v 4.16 h -7.04 v 7.36 z" style="" id="path956"/> </g> <g aria-label="รท" style="font-style:normal;font-variant:normal;font-weight:400;font-size:126.50427246px;line-height:125%;font-family:Arial;text-align:start;letter-spacing:0px;word-spacing:0px;text-anchor:start;fill:#ffffff;fill-opacity:1;stroke:none;stroke-width:9.59705544" id="text1033"> <path d="m 488.36827,-211.61979 q -4.42765,0 -7.33724,-2.65659 -2.9096,-2.7831 -2.9096,-7.08424 0,-4.30115 2.9096,-6.95774 2.90959,-2.78309 7.33724,-2.78309 4.42765,0 7.33725,2.78309 2.9096,2.65659 2.9096,6.95774 0,4.30114 -2.9096,7.08424 -2.9096,2.65659 -7.33725,2.65659 z m 0,45.54153 q -4.42765,0 -7.33724,-2.65659 -2.9096,-2.78309 -2.9096,-7.08424 0,-4.30114 2.9096,-6.95773 2.90959,-2.78309 7.33724,-2.78309 4.42765,0 7.33725,2.78309 2.9096,2.65659 2.9096,6.95773 0,4.30115 -2.9096,7.08424 -2.9096,2.65659 -7.33725,2.65659 z m -29.09598,-25.93337 v -13.15645 h 58.19197 v 13.15645 z" style="font-style:normal;font-variant:normal;font-weight:bold;font-stretch:normal;font-size:126.50427246px;font-family:'source code pro';-inkscape-font-specification:'source code pro Bold';fill:#ffffff;fill-opacity:1;stroke-width:9.59705544" id="path965"/> </g> <rect style="opacity:1;fill:#2c3543;fill-opacity:1;fill-rule:nonzero;stroke:none;stroke-width:3.56299376;stroke-linecap:round;stroke-linejoin:round;stroke-miterlimit:4;stroke-dasharray:none;stroke-dashoffset:0;stroke-opacity:1;paint-order:markers stroke fill" id="rect828" width="492.00415" height="122.10323" x="53.824577" y="-408.67926" ry="16.16074"/> <path style="opacity:1;fill:#99afbd;fill-opacity:1;fill-rule:nonzero;stroke:none;stroke-width:3.56299376;stroke-linecap:round;stroke-linejoin:round;stroke-miterlimit:4;stroke-dasharray:none;stroke-dashoffset:0;stroke-opacity:1;paint-order:markers stroke fill" d="m 74.474443,-403.96598 c -8.95305,0 -16.16107,7.20803 -16.16107,16.16108 v 89.78196 c 0,3.15265 0.89681,6.08654 2.44577,8.56785 2.61318,1.81462 5.79019,2.87906 9.22639,2.87906 H 529.66773 c 8.95307,0 16.16108,-7.2074 16.16108,-16.16045 v -89.78197 c 0,-3.15254 -0.89689,-6.08659 -2.44576,-8.56784 -2.61313,-1.81449 -5.78971,-2.87969 -9.22579,-2.87969 z" id="rect1115"/> <path style="opacity:1;fill:#ffffff;fill-opacity:0.1372549;fill-rule:nonzero;stroke:none;stroke-width:3.56299376;stroke-linecap:round;stroke-linejoin:round;stroke-miterlimit:4;stroke-dasharray:none;stroke-dashoffset:0;stroke-opacity:1;paint-order:markers stroke fill" d="m 74.474443,-403.96598 c -8.95305,0 -16.16107,7.20803 -16.16107,16.16108 v 89.78196 c 0,3.15265 0.89681,6.08654 2.44577,8.56785 2.61318,1.81462 5.79019,2.87906 9.22639,2.87906 h 59.533647 l 308.5886,-117.38995 z" id="path1120"/> </g> </svg>